<svg xmlns="http://www.w3.org/2000/svg" data-name="Layer 1" width="80" height="80"><rect id="backgroundrect" width="100%" height="100%" x="0" y="0" fill="none" stroke="none"/><defs><style>.cls-1{fill:#0caa41;}.cls-2{fill:#fff;fill-rule:evenodd;}</style></defs><title>short artboard glassdoor full color icon</title><g class="currentLayer" style=""><title>Layer 1</title><path class="cls-1" d="M77.65958463907242,61.72765961887916 A15.41,15.41 0 0 1 62.249584639072424,77.12765961887916 H18.059584639072412 a15.41,15.41 0 0 1 -15.4,-15.4 V17.53765961887916 A15.41,15.41 0 0 1 18.059584639072412,2.127659618879159 H62.249584639072424 a15.41,15.41 0 0 1 15.41,15.41 h0 z" id="svg_1"/><path id="icon" class="cls-2" d="M50.18958463907242,15.37382983925422 A6.63,6.63 0 0 1 56.84958463907242,22.00382983925422 h-26.5 V49.20382983925422 a0.24000000000000007,0.24000000000000007 0 0 1 -0.24000000000000007,0.24000000000000007 h-6.14 a0.24000000000000007,0.24000000000000007 0 0 1 -0.24000000000000007,-0.24000000000000007 V22.00382983925422 h0 a6.63,6.63 0 0 1 6.63,-6.63 h19.88 zm0,39.75 h-26.5 a6.63,6.63 0 0 0 6.63,6.63 h19.88 A6.63,6.63 0 0 0 56.84958463907242,55.12382983925422 h0 V27.923829839254218 a0.24000000000000007,0.24000000000000007 0 0 0 -0.24000000000000007,-0.24000000000000007 h-6.14 a0.24000000000000007,0.24000000000000007 0 0 0 -0.24000000000000007,0.24000000000000007 z"/></g></svg>