<?xml version="1.0" encoding="iso-8859-1"?>
<!-- Generator: Adobe Illustrator 19.0.0, SVG Export Plug-In . SVG Version: 6.00 Build 0)  -->
<svg version="1.1" id="Capa_1" xmlns="http://www.w3.org/2000/svg" xmlns:xlink="http://www.w3.org/1999/xlink" x="0px" y="0px"
	 viewBox="0 0 508 508" style="enable-background:new 0 0 508 508;" xml:space="preserve">
<g>
	<g>
		<polygon points="65.5,434.3 65.5,8.2 49.2,8.2 49.2,41 24.6,41 24.6,57.4 49.2,57.4 49.2,90.1 24.6,90.1 24.6,106.5 49.2,106.5 
			49.2,139.3 24.6,139.3 24.6,155.7 49.2,155.7 49.2,188.5 24.6,188.5 24.6,204.8 49.2,204.8 49.2,237.6 24.6,237.6 24.6,254 
			49.2,254 49.2,286.8 24.6,286.8 24.6,303.2 49.2,303.2 49.2,335.9 24.6,335.9 24.6,352.3 49.2,352.3 49.2,385.1 24.6,385.1 
			24.6,401.5 49.2,401.5 49.2,434.3 0,434.3 0,450.6 49.2,450.6 49.2,499.8 65.5,499.8 65.5,450.6 106.5,450.6 106.5,475.2 
			122.9,475.2 122.9,450.6 155.7,450.6 155.7,475.2 172.1,475.2 172.1,450.6 204.8,450.6 204.8,475.2 221.2,475.2 221.2,450.6 
			254,450.6 254,475.2 270.4,475.2 270.4,450.6 303.2,450.6 303.2,475.2 319.5,475.2 319.5,450.6 352.3,450.6 352.3,475.2 
			368.7,475.2 368.7,450.6 401.5,450.6 401.5,475.2 417.9,475.2 417.9,450.6 450.6,450.6 450.6,475.2 467,475.2 467,450.6 
			508,450.6 508,434.3 		"/>
	</g>
</g>
<g>
	<g>
		<path d="M106.6,311.4v114.7h65.5V311.4H106.6z M155.7,409.7h-32.8v-81.9h32.8V409.7z"/>
	</g>
</g>
<g>
	<g>
		<path d="M204.8,180.3v245.8h65.5V180.3H204.8z M254,409.6h-32.8v-213H254V409.6z"/>
	</g>
</g>
<g>
	<g>
		<path d="M303.2,245.8v180.3h65.5V245.8H303.2z M352.3,409.7h-32.8V262.2h32.8V409.7z"/>
	</g>
</g>
<g>
	<g>
		<path d="M401.5,114.7v311.4H467V114.7H401.5z M450.7,409.7h-32.8V131.1h32.8V409.7z"/>
	</g>
</g>
<g>
	<g>
		<polygon points="417.9,8.2 417.9,24.6 439.1,24.6 335.9,127.7 237.6,29.4 133.5,133.5 145.1,145.1 237.6,52.6 335.9,150.9 
			450.6,36.2 450.6,57.4 467,57.4 467,8.2 		"/>
	</g>
</g>
<g>
</g>
<g>
</g>
<g>
</g>
<g>
</g>
<g>
</g>
<g>
</g>
<g>
</g>
<g>
</g>
<g>
</g>
<g>
</g>
<g>
</g>
<g>
</g>
<g>
</g>
<g>
</g>
<g>
</g>
</svg>
