<svg width="514" height="624" xmlns="http://www.w3.org/2000/svg">

 <g>
  <title>background</title>
  <rect fill="none" id="canvas_background" height="626" width="516" y="-1" x="-1"/>
 </g>
 <g>
  <title>Layer 1</title>
  <rect id="svg_78" height="269.001583" width="260.00153" y="134.436385" x="127.999197" stroke-opacity="null" stroke-width="null" stroke="#6b48ff" fill="#ffffff"/>
  <path stroke="#ffffff" fill="#ffffff" id="svg_77" d="m256.588778,2.000081c-140.111129,0 -254.167437,111.342271 -254.167437,248.119375c0,15.572345 1.462261,31.274461 4.519713,46.587267c0.132934,0.908388 0.664664,3.633548 1.728127,8.305251c3.855049,16.740271 9.571159,33.221004 17.015393,48.923119c27.384149,62.93823 87.602689,159.616544 219.737852,263.172642c3.323319,2.595391 7.311302,3.893087 11.299285,3.893087s7.975966,-1.297696 11.299284,-3.893087c132.002231,-103.556098 192.353703,-200.234412 219.737852,-263.172642c7.444234,-15.702115 13.160344,-32.053079 17.015393,-48.923119c1.063463,-4.671704 1.595193,-7.396864 1.728127,-8.305251c2.92452,-15.312806 4.519713,-31.014922 4.519713,-46.587267c-0.265865,-136.777104 -114.322173,-248.119375 -254.433303,-248.119375zm214.28761,288.607474c0,0.259539 -0.132934,0.519078 -0.132934,0.778617c-0.132933,0.648848 -0.53173,2.595391 -1.196394,5.580091c0,0.129769 0,0.129769 0,0.259539c-3.323319,14.534189 -8.241832,28.67907 -14.755537,42.304872c-0.132933,0.129769 -0.132933,0.389309 -0.265865,0.519078c-24.858427,57.48791 -79.360858,145.212124 -197.93688,240.852281c-118.576022,-95.640157 -173.078454,-183.364371 -197.936879,-240.852281c-0.132933,-0.129769 -0.132933,-0.389309 -0.265865,-0.519078c-6.380773,-13.496032 -11.299285,-27.770683 -14.755537,-42.304872c0,-0.129769 0,-0.129769 0,-0.259539c-0.797597,-2.9847 -1.063463,-4.931243 -1.196395,-5.580091c0,-0.259539 -0.132933,-0.519078 -0.132933,-0.908386c-2.658655,-13.366264 -3.987983,-26.862297 -3.987983,-40.4881c0,-117.44144 97.971444,-213.081596 218.275592,-213.081596s218.275593,95.640157 218.275593,213.081596c0,13.755572 -1.329328,27.381375 -3.987983,40.617869z"/>
  <path stroke="#6b48ff" fill="#6b48ff" id="svg_3" d="m257.599755,21.000121c-128.540747,0 -233.178282,103.427779 -233.178282,230.482416c0,14.465424 1.341507,29.051392 4.146476,43.275726c0.121955,0.843816 0.609776,3.375266 1.585417,7.714893c3.5367,15.55033 8.780772,30.85957 15.610262,45.445539c25.122765,58.46442 80.368456,148.270592 201.591893,244.465659c3.048879,2.410904 6.707534,3.616356 10.366189,3.616356s7.31731,-1.205452 10.366189,-3.616356c121.101482,-96.195067 176.469128,-186.001238 201.591893,-244.465659c6.829489,-14.585969 12.073562,-29.774664 15.610262,-45.445539c0.975641,-4.339627 1.463462,-6.871076 1.585417,-7.714893c2.683014,-14.224333 4.146476,-28.810302 4.146476,-43.275726c-0.24391,-127.054637 -104.881445,-230.482416 -233.422192,-230.482416zm196.591731,268.092517c0,0.24109 -0.121955,0.482181 -0.121955,0.723271c-0.121955,0.602726 -0.487821,2.410904 -1.097597,5.183443c0,0.120545 0,0.120545 0,0.24109c-3.048879,13.501062 -7.56122,26.640488 -13.537024,39.297734c-0.121955,0.120545 -0.121955,0.361636 -0.24391,0.482181c-22.805616,53.401522 -72.807235,134.890075 -181.591246,223.731885c-108.78401,-88.84181 -158.785629,-170.330363 -181.591246,-223.731885c-0.121955,-0.120545 -0.121955,-0.361636 -0.24391,-0.482181c-5.853848,-12.5367 -10.366189,-25.796672 -13.537024,-39.297734c0,-0.120545 0,-0.120545 0,-0.24109c-0.731731,-2.77254 -0.975641,-4.580717 -1.097597,-5.183443c0,-0.24109 -0.121955,-0.482181 -0.121955,-0.843816c-2.439103,-12.416155 -3.658655,-24.952856 -3.658655,-37.610101c0,-109.093403 89.880959,-197.935213 200.250386,-197.935213s200.250386,88.84181 200.250386,197.935213c0,12.777791 -1.219552,25.435036 -3.658655,37.730647z"/>
  <rect width="0" id="svg_22" height="0.778394" y="343.641502" x="403.33546" stroke-width="null" stroke="#6b48ff" fill="#6b48ff"/>
  <rect width="0" id="svg_23" height="0.778394" y="289.153909" x="391.659547" stroke-width="null" stroke="#6b48ff" fill="#6b48ff"/>
  <rect width="0" id="svg_24" height="0.778394" y="244.78544" x="396.329912" stroke-width="null" stroke="#6b48ff" fill="#6b48ff"/>
  <rect id="svg_42" height="246.750959" width="28.022191" y="147.486165" x="377.648451" fill-opacity="null" stroke-opacity="null" stroke-width="null" stroke="#6b48ff" fill="#6b48ff"/>
  <rect stroke="#6b48ff" id="svg_43" height="26.465403" width="244.415776" y="124.13434" x="134.789464" fill-opacity="null" stroke-opacity="null" stroke-width="null" fill="#6b48ff"/>
  <rect id="svg_44" height="241.3022" width="26.465403" y="159.940472" x="114.551214" fill-opacity="null" stroke-opacity="null" stroke-width="null" stroke="#6b48ff" fill="#6b48ff"/>
  <rect id="svg_45" height="32.692556" width="254.534901" y="389.56676" x="128.562309" fill-opacity="null" stroke-opacity="null" stroke-width="null" stroke="#6b48ff" fill="#6b48ff"/>
  <rect id="svg_46" height="164.241175" width="26.465403" y="178.621933" x="95.869753" fill-opacity="null" stroke-opacity="null" stroke-width="null" stroke="#6b48ff" fill="#6b48ff"/>
  <rect id="svg_47" height="158.792416" width="28.022191" y="181.73551" x="396.329912" fill-opacity="null" stroke-opacity="null" stroke-width="null" stroke="#6b48ff" fill="#6b48ff"/>
  <rect id="svg_48" height="45.925257" width="18.681461" y="142.037406" x="122.335156" fill-opacity="null" stroke-opacity="null" stroke-width="null" stroke="#6b48ff" fill="#6b48ff"/>
  <rect id="svg_49" height="23.351826" width="172.025117" y="102.339302" x="166.703625" fill-opacity="null" stroke-opacity="null" stroke-width="null" stroke="#6b48ff" fill="#6b48ff"/>
  <rect stroke="#6b48ff" id="svg_50" height="39.698106" width="192.263369" y="416.032163" x="161.254866" stroke-width="null" fill="#6b48ff"/>
  <rect id="svg_51" height="39.698104" width="109.753581" y="461.179025" x="210.2937" stroke-width="null" stroke="#6b48ff" fill="#6b48ff"/>
  <rect id="svg_52" height="25.687008" width="26.465403" y="456.50866" x="193.947422" stroke-width="null" stroke="#6b48ff" fill="#6b48ff"/>
  <rect id="svg_53" height="18.681461" width="67.720295" y="496.206764" x="232.088737" stroke-width="null" stroke="#6b48ff" fill="#6b48ff"/>
  <rect id="svg_54" height="14.011095" width="24.13022" y="512.553042" x="249.991804" stroke-width="null" stroke="#6b48ff" fill="#6b48ff"/>
  <rect id="svg_55" height="40.476498" width="145.559714" y="437.048805" x="188.498662" fill-opacity="null" stroke-opacity="null" stroke-width="null" stroke="#6b48ff" fill="#6b48ff"/>
  <rect id="svg_56" height="16.346278" width="13.232701" y="414.475374" x="349.62626" fill-opacity="null" stroke-opacity="null" stroke-width="null" stroke="#6b48ff" fill="#6b48ff"/>
  <rect transform="rotate(44.63236618041992 260.1110534667969,210.92518615722653) " stroke="#6b48ff" id="svg_57" height="250.041324" width="81.948702" y="85.904641" x="219.136575" fill-opacity="null" stroke-opacity="null" stroke-width="null" fill="#6b48ff"/>
  <rect transform="rotate(134.84127807617188 271.7869567871094,340.9169921875) " stroke="#6b48ff" id="svg_58" height="250.041324" width="81.948702" y="215.896464" x="230.812488" fill-opacity="null" stroke-opacity="null" stroke-width="null" fill="#6b48ff"/>
  <rect id="svg_59" height="47.000274" width="12.00007" y="240.437486" x="87.499229" stroke-width="null" stroke="#6b48ff" fill="#6b48ff"/>
  <rect id="svg_60" height="13.000076" width="45.000263" y="94.436634" x="235.500093" stroke-width="null" stroke="#6b48ff" fill="#6b48ff"/>
  <rect id="svg_61" height="0" width="1.000006" y="174.000111" x="635.502426" stroke-width="null" stroke="#6b48ff" fill="#6b48ff"/>
  <rect stroke="#6b48ff" id="svg_62" height="61.000358" width="311.001825" y="89.436082" x="105.999034" fill-opacity="null" stroke-opacity="null" stroke-width="null" fill="#6b48ff"/>
  <rect id="svg_63" height="33.000194" width="235.001379" y="58.4359" x="137.999222" fill-opacity="null" stroke-opacity="null" stroke-width="null" stroke="#6b48ff" fill="#6b48ff"/>
  <rect id="svg_64" height="16.000094" width="109.000639" y="44.435818" x="205.999621" fill-opacity="null" stroke-opacity="null" stroke-width="null" stroke="#6b48ff" fill="#6b48ff"/>
  <rect id="svg_65" height="282.001654" width="54.000317" y="112.436217" x="78.998876" fill-opacity="null" stroke-opacity="null" stroke-width="null" stroke="#6b48ff" fill="#6b48ff"/>
  <rect id="svg_66" height="1.000006" width="0" y="87.43607" x="182.999486" fill-opacity="null" stroke-opacity="null" stroke-width="null" stroke="#6b48ff" fill="#6b48ff"/>
  <rect stroke="#6b48ff" id="svg_67" height="192.001165" width="34.000177" y="155.436481" x="54.998744" fill-opacity="null" stroke-opacity="null" stroke-width="null" fill="#6b48ff"/>
  <rect id="svg_68" height="272.001596" width="33.000194" y="123.436282" x="402.000771" fill-opacity="null" stroke-opacity="null" stroke-width="null" stroke="#6b48ff" fill="#6b48ff"/>
  <rect id="svg_69" height="191.001121" width="38.000223" y="154.436463" x="421.000882" fill-opacity="null" stroke-opacity="null" stroke-width="null" stroke="#6b48ff" fill="#6b48ff"/>
  <rect id="svg_70" height="48.000282" width="308.001807" y="394.437871" x="102.999017" fill-opacity="null" stroke-opacity="null" stroke-width="null" stroke="#6b48ff" fill="#6b48ff"/>
  <rect id="svg_72" height="42.000246" width="250.001467" y="435.438112" x="130.999181" fill-opacity="null" stroke-opacity="null" stroke-width="null" stroke="#6b48ff" fill="#6b48ff"/>
  <rect id="svg_73" height="41.000241" width="179.00105" y="468.438306" x="172.999427" fill-opacity="null" stroke-opacity="null" stroke-width="null" stroke="#6b48ff" fill="#6b48ff"/>
  <rect id="svg_74" height="43.000252" width="131.000769" y="490.438435" x="202.999603" fill-opacity="null" stroke-opacity="null" stroke-width="null" stroke="#6b48ff" fill="#6b48ff"/>
  <rect id="svg_75" height="39.000229" width="62.000364" y="518.438599" x="227.99975" fill-opacity="null" stroke-opacity="null" stroke-width="null" stroke="#6b48ff" fill="#6b48ff"/>
 </g>
</svg>