<?xml version="1.0" encoding="utf-8"?>
<!-- Generator: Adobe Illustrator 19.0.1, SVG Export Plug-In . SVG Version: 6.00 Build 0)  -->
<svg version="1.1"
	 id="svg5272" sodipodi:docname="Viadeo Logo.svg" inkscape:version="0.48.4 r9939" xmlns:dc="http://purl.org/dc/elements/1.1/" xmlns:cc="http://creativecommons.org/ns#" xmlns:svg="http://www.w3.org/2000/svg" xmlns:rdf="http://www.w3.org/1999/02/22-rdf-syntax-ns#" xmlns:sodipodi="http://sodipodi.sourceforge.net/DTD/sodipodi-0.dtd" xmlns:inkscape="http://www.inkscape.org/namespaces/inkscape"
	 xmlns="http://www.w3.org/2000/svg" xmlns:xlink="http://www.w3.org/1999/xlink" x="0px" y="0px" viewBox="-385.8 56.1 402 402"
	 style="enable-background:new -385.8 56.1 402 402;" xml:space="preserve">
<style type="text/css">
	.st0{fill:#F49D22;}
	.st1{fill:#FFFFFF;}
</style>
<circle class="st0" cx="-184.8" cy="257.1" r="192"/>
<sodipodi:namedview  id="base" fit-margin-left="1" fit-margin-top="1" showgrid="false" inkscape:cy="78.336182" inkscape:cx="20.947097" inkscape:zoom="3.959798" borderopacity="1.0" bordercolor="#666666" pagecolor="#ffffff" inkscape:window-maximized="1" fit-margin-bottom="1" fit-margin-right="1" inkscape:window-y="-8" inkscape:window-x="-8" inkscape:window-height="1017" inkscape:window-width="1920" inkscape:current-layer="layer1" inkscape:document-units="px" inkscape:pageshadow="2" inkscape:pageopacity="0.0">
	</sodipodi:namedview>
<g id="layer1" transform="translate(-337.0262,-561.07372)" inkscape:label="Calque 1" inkscape:groupmode="layer">
	<g id="g5401">
		<g id="g3423" transform="matrix(1.25,0,0,-1.25,-104.8368,617.34747)">
			<g>
				<g id="g3425">
					<g id="g3441" transform="translate(403.1227,44.1731)">
						<path id="path3443" inkscape:connector-curvature="0" class="st1" d="M-204.4-111.7c0,0,22-14.6,25.8-54.7
							c0,0,7.4-96.3-42.4-115.2c0,0,4.5-0.8,9.5-0.6c0,0,61.6,38.9,33.4,114.3C-178.2-167.9-186.6-141.6-204.4-111.7"/>
					</g>
					<g id="g3445" transform="translate(405.3107,39.6981)">
						<path id="path3447" inkscape:connector-curvature="0" class="st1" d="M-174.4-173.1c0,0-11.5,17.8,3.1,32.4
							c0,0,5.1,5.6,19.7,9.3c0,0,14.6,3.1,22.5,19.8c0,0,16.3-22.8,6.3-52.8c0,0-5-13.5-15.3-19.7c-7.8-4.6-19.7-6.1-32.1,6
							c0,0,37.4,20.5,38.9,37.9C-131.4-140-142.9-165.9-174.4-173.1"/>
					</g>
					<g id="g3449" transform="translate(405.3107,39.6981)">
						<path id="path3451" inkscape:connector-curvature="0" class="st1" d="M-174.4-173.1c0,0-11.5,17.8,3.1,32.4
							c0,0,5.1,5.6,19.7,9.3c0,0,14.6,3.1,22.5,19.8c0,0,16.3-22.8,6.3-52.8c0,0-5-13.5-15.3-19.7c-7.8-4.6-19.7-6.1-32.1,6
							c0,0,37.4,20.5,38.9,37.9C-131.4-140-142.9-165.9-174.4-173.1"/>
					</g>
					<g id="g3457" transform="translate(405.9603,36.0319)">
						<path id="path3459" inkscape:connector-curvature="0" class="st1" d="M-165.5-223.3c0-9.2-2.2-17.8-6.6-25.8
							c-4.4-8-10.4-14.2-17.9-18.5c-7.5-4.3-15.7-6.5-24.7-6.5c-9,0-17.2,2.2-24.7,6.5c-7.5,4.3-13.5,10.5-17.9,18.5
							c-4.4,8-6.6,16.6-6.6,25.8c0,14.3,4.8,26.5,14.5,36.6c9.7,10.1,21.2,15.2,34.7,15.2c6.4,0,12.4-1.2,17.9-3.5
							c0.5,5.8,2.6,11.3,4.9,15.7c-7,2.5-14.6,3.8-22.7,3.8c-19.5,0-35.6-7.2-48.3-21.5c-11.6-13-17.4-28.3-17.4-46
							c0-17.8,6.1-33.4,18.3-46.8c12.2-13.3,28-20,47.3-20c19.2,0,34.9,6.7,47.2,20c12.2,13.4,18.3,29,18.3,46.8
							c0,9.6-1.7,18.4-5,26.6c-5.6-3.5-11-5.3-15.4-6.2C-166.8-208.9-165.5-215.8-165.5-223.3"/>
					</g>
				</g>
			</g>
		</g>
	</g>
</g>
</svg>
